<mxfile host="app.diagrams.net" modified="2024-05-09T05:31:16.269Z" agent="Mozilla/5.0 (Windows NT 10.0; Win64; x64) AppleWebKit/537.36 (KHTML, like Gecko) Chrome/124.0.0.0 Safari/537.36" etag="Cy3zPQi81dkAMnCChrys" version="24.3.1" type="device">
  <diagram name="Page-1" id="Es-85ZQ6GN-KvYV_eirD">
    <mxGraphModel dx="2647" dy="2613" grid="1" gridSize="10" guides="1" tooltips="1" connect="1" arrows="1" fold="1" page="1" pageScale="1" pageWidth="850" pageHeight="1100" math="0" shadow="0">
      <root>
        <mxCell id="0" />
        <mxCell id="1" parent="0" />
        <mxCell id="6Ed39PRhQ_wDkVN-oWnp-3" value="Quiz Creation Application&#xa;&#xa;&#xa;Objective:&#xa;Develop a console-based quiz creation application to allow users to create, manage, and take quizzes on various topics.&#xa;&#xa;&#xa;Functional Requirements:&#xa;&#xa;&#xa;&#xa;&#xa;1. **Quiz Creation:**&#xa;   - Enable users to create quizzes by providing a title, description, and a set of questions with multiple-choice answers.&#xa;   - Each question should have one correct answer and may have multiple incorrect answers.&#xa;&#xa;&#xa;2. **Quiz Management:**&#xa;   - Allow quiz creators(all users) to edit, delete, or publish their quizzes.&#xa;   - Published quizzes should be available for other users to take.&#xa;&#xa;&#xa;3. **Quiz Taking:**&#xa;   - Allow users to browse and select quizzes from the available list of published quizzes.&#xa;   - Present one question at a time during the quiz taking process.&#xa;   - Calculate and display the final score at the end of the quiz.&#xa;&#xa;&#xa;4. **Quiz Review:**&#xa;   - Allow users to review their last quiz attempt, showing which questions were answered correctly and incorrectly.&#xa;   - Display the correct answers for incorrectly answered questions.&#xa;&#xa;&#xa;&#xa;&#xa;Non-Functional Requirements:&#xa;&#xa;&#xa;1. **User Interface:**&#xa;   - Design a user-friendly console interface with clear menus and prompts for easy navigation and interaction.&#xa;&#xa;&#xa;2. **Efficiency:**&#xa;   - Ensure efficient processing of quiz creation, management, and taking operations, even with a large number of users and quizzes.&#xa;&#xa;&#xa;3. **Security:**&#xa;   - Implement authentication and authorization mechanisms to ensure that only registered users can create, edit, or delete quizzes.&#xa;&#xa;&#xa;4. **Scalability:**&#xa;   - Design the application to handle a growing number of users, quizzes, and quiz attempts without performance degradation.&#xa;&#xa;&#xa;Optional Enhancements (Not required but could be added for further functionality):&#xa;&#xa;&#xa;1. **Randomized Questions:**&#xa;   - Implement the option to randomize the order of questions during quiz taking to prevent memorization.&#xa;&#xa;&#xa;2. **Categories and Tags:**&#xa;   - Allow quiz creators to categorize their quizzes and add tags to facilitate easy searching and filtering." style="text;whiteSpace=wrap;" parent="1" vertex="1">
          <mxGeometry x="80" y="-20" width="560" height="1060" as="geometry" />
        </mxCell>
        <mxCell id="6Ed39PRhQ_wDkVN-oWnp-7" style="rounded=0;orthogonalLoop=1;jettySize=auto;html=1;entryX=0;entryY=0.5;entryDx=0;entryDy=0;endArrow=none;endFill=0;" parent="1" source="6Ed39PRhQ_wDkVN-oWnp-4" target="6Ed39PRhQ_wDkVN-oWnp-6" edge="1">
          <mxGeometry relative="1" as="geometry" />
        </mxCell>
        <mxCell id="6Ed39PRhQ_wDkVN-oWnp-9" value="M" style="edgeLabel;html=1;align=center;verticalAlign=middle;resizable=0;points=[];fontFamily=Helvetica;fontSize=11;fontColor=default;labelBackgroundColor=default;" parent="6Ed39PRhQ_wDkVN-oWnp-7" vertex="1" connectable="0">
          <mxGeometry x="0.6947" y="3" relative="1" as="geometry">
            <mxPoint y="3" as="offset" />
          </mxGeometry>
        </mxCell>
        <mxCell id="6Ed39PRhQ_wDkVN-oWnp-4" value="Quiz" style="whiteSpace=wrap;html=1;align=center;" parent="1" vertex="1">
          <mxGeometry x="995" y="80" width="100" height="40" as="geometry" />
        </mxCell>
        <mxCell id="6Ed39PRhQ_wDkVN-oWnp-16" style="edgeStyle=none;rounded=0;orthogonalLoop=1;jettySize=auto;html=1;entryX=0;entryY=0.5;entryDx=0;entryDy=0;strokeColor=default;align=center;verticalAlign=middle;fontFamily=Helvetica;fontSize=11;fontColor=default;labelBackgroundColor=default;endArrow=none;endFill=0;" parent="1" source="6Ed39PRhQ_wDkVN-oWnp-5" target="6Ed39PRhQ_wDkVN-oWnp-14" edge="1">
          <mxGeometry relative="1" as="geometry" />
        </mxCell>
        <mxCell id="6Ed39PRhQ_wDkVN-oWnp-21" value="1" style="edgeLabel;html=1;align=center;verticalAlign=middle;resizable=0;points=[];fontFamily=Helvetica;fontSize=11;fontColor=default;labelBackgroundColor=default;" parent="6Ed39PRhQ_wDkVN-oWnp-16" vertex="1" connectable="0">
          <mxGeometry x="0.624" y="1" relative="1" as="geometry">
            <mxPoint as="offset" />
          </mxGeometry>
        </mxCell>
        <mxCell id="6Ed39PRhQ_wDkVN-oWnp-19" style="edgeStyle=none;rounded=0;orthogonalLoop=1;jettySize=auto;html=1;entryX=0;entryY=0.5;entryDx=0;entryDy=0;strokeColor=default;align=center;verticalAlign=middle;fontFamily=Helvetica;fontSize=11;fontColor=default;labelBackgroundColor=default;endArrow=none;endFill=0;" parent="1" source="6Ed39PRhQ_wDkVN-oWnp-5" target="6Ed39PRhQ_wDkVN-oWnp-18" edge="1">
          <mxGeometry relative="1" as="geometry" />
        </mxCell>
        <mxCell id="6Ed39PRhQ_wDkVN-oWnp-22" value="M" style="edgeLabel;html=1;align=center;verticalAlign=middle;resizable=0;points=[];fontFamily=Helvetica;fontSize=11;fontColor=default;labelBackgroundColor=default;" parent="6Ed39PRhQ_wDkVN-oWnp-19" vertex="1" connectable="0">
          <mxGeometry x="0.7333" y="1" relative="1" as="geometry">
            <mxPoint as="offset" />
          </mxGeometry>
        </mxCell>
        <mxCell id="6Ed39PRhQ_wDkVN-oWnp-5" value="Question" style="whiteSpace=wrap;html=1;align=center;" parent="1" vertex="1">
          <mxGeometry x="1670" y="80" width="100" height="40" as="geometry" />
        </mxCell>
        <mxCell id="6Ed39PRhQ_wDkVN-oWnp-8" style="edgeStyle=none;rounded=0;orthogonalLoop=1;jettySize=auto;html=1;entryX=0;entryY=0.5;entryDx=0;entryDy=0;strokeColor=default;align=center;verticalAlign=middle;fontFamily=Helvetica;fontSize=11;fontColor=default;labelBackgroundColor=default;endArrow=none;endFill=0;" parent="1" source="6Ed39PRhQ_wDkVN-oWnp-6" target="6Ed39PRhQ_wDkVN-oWnp-5" edge="1">
          <mxGeometry relative="1" as="geometry" />
        </mxCell>
        <mxCell id="6Ed39PRhQ_wDkVN-oWnp-10" value="1" style="edgeLabel;html=1;align=center;verticalAlign=middle;resizable=0;points=[];fontFamily=Helvetica;fontSize=11;fontColor=default;labelBackgroundColor=default;" parent="6Ed39PRhQ_wDkVN-oWnp-8" vertex="1" connectable="0">
          <mxGeometry x="-0.763" y="1" relative="1" as="geometry">
            <mxPoint y="1" as="offset" />
          </mxGeometry>
        </mxCell>
        <mxCell id="6Ed39PRhQ_wDkVN-oWnp-6" value="Has" style="shape=rhombus;perimeter=rhombusPerimeter;whiteSpace=wrap;html=1;align=center;" parent="1" vertex="1">
          <mxGeometry x="1370" y="70" width="120" height="60" as="geometry" />
        </mxCell>
        <mxCell id="6Ed39PRhQ_wDkVN-oWnp-17" style="edgeStyle=none;rounded=0;orthogonalLoop=1;jettySize=auto;html=1;strokeColor=default;align=center;verticalAlign=middle;fontFamily=Helvetica;fontSize=11;fontColor=default;labelBackgroundColor=default;endArrow=none;endFill=0;exitX=1;exitY=0.5;exitDx=0;exitDy=0;entryX=0;entryY=0.25;entryDx=0;entryDy=0;" parent="1" source="6Ed39PRhQ_wDkVN-oWnp-14" target="6Ed39PRhQ_wDkVN-oWnp-23" edge="1">
          <mxGeometry relative="1" as="geometry" />
        </mxCell>
        <mxCell id="6Ed39PRhQ_wDkVN-oWnp-26" value="1" style="edgeLabel;html=1;align=center;verticalAlign=middle;resizable=0;points=[];fontFamily=Helvetica;fontSize=11;fontColor=default;labelBackgroundColor=default;" parent="6Ed39PRhQ_wDkVN-oWnp-17" vertex="1" connectable="0">
          <mxGeometry x="-0.8421" y="2" relative="1" as="geometry">
            <mxPoint as="offset" />
          </mxGeometry>
        </mxCell>
        <mxCell id="6Ed39PRhQ_wDkVN-oWnp-14" value="Has correct answer" style="shape=rhombus;perimeter=rhombusPerimeter;whiteSpace=wrap;html=1;align=center;fontFamily=Helvetica;fontSize=11;fontColor=default;labelBackgroundColor=default;" parent="1" vertex="1">
          <mxGeometry x="1860" y="-20" width="120" height="70" as="geometry" />
        </mxCell>
        <mxCell id="6Ed39PRhQ_wDkVN-oWnp-20" style="edgeStyle=none;rounded=0;orthogonalLoop=1;jettySize=auto;html=1;entryX=0;entryY=0.75;entryDx=0;entryDy=0;strokeColor=default;align=center;verticalAlign=middle;fontFamily=Helvetica;fontSize=11;fontColor=default;labelBackgroundColor=default;endArrow=none;endFill=0;exitX=1;exitY=0.5;exitDx=0;exitDy=0;" parent="1" source="6Ed39PRhQ_wDkVN-oWnp-18" target="6Ed39PRhQ_wDkVN-oWnp-23" edge="1">
          <mxGeometry relative="1" as="geometry" />
        </mxCell>
        <mxCell id="6Ed39PRhQ_wDkVN-oWnp-25" value="1" style="edgeLabel;html=1;align=center;verticalAlign=middle;resizable=0;points=[];fontFamily=Helvetica;fontSize=11;fontColor=default;labelBackgroundColor=default;" parent="6Ed39PRhQ_wDkVN-oWnp-20" vertex="1" connectable="0">
          <mxGeometry x="-0.7335" y="-1" relative="1" as="geometry">
            <mxPoint as="offset" />
          </mxGeometry>
        </mxCell>
        <mxCell id="6Ed39PRhQ_wDkVN-oWnp-18" value="Has Wrong Answer" style="shape=rhombus;perimeter=rhombusPerimeter;whiteSpace=wrap;html=1;align=center;fontFamily=Helvetica;fontSize=11;fontColor=default;labelBackgroundColor=default;" parent="1" vertex="1">
          <mxGeometry x="1860" y="150" width="120" height="70" as="geometry" />
        </mxCell>
        <mxCell id="6Ed39PRhQ_wDkVN-oWnp-23" value="Answer" style="shape=ext;margin=3;double=1;whiteSpace=wrap;html=1;align=center;fontFamily=Helvetica;fontSize=11;fontColor=default;labelBackgroundColor=default;" parent="1" vertex="1">
          <mxGeometry x="2090" y="80" width="100" height="40" as="geometry" />
        </mxCell>
        <mxCell id="6Ed39PRhQ_wDkVN-oWnp-29" style="edgeStyle=none;rounded=0;orthogonalLoop=1;jettySize=auto;html=1;entryX=0.5;entryY=1;entryDx=0;entryDy=0;strokeColor=default;align=center;verticalAlign=middle;fontFamily=Helvetica;fontSize=11;fontColor=default;labelBackgroundColor=default;endArrow=none;endFill=0;" parent="1" source="6Ed39PRhQ_wDkVN-oWnp-27" target="6Ed39PRhQ_wDkVN-oWnp-28" edge="1">
          <mxGeometry relative="1" as="geometry" />
        </mxCell>
        <mxCell id="6Ed39PRhQ_wDkVN-oWnp-31" value="M" style="edgeLabel;html=1;align=center;verticalAlign=middle;resizable=0;points=[];fontFamily=Helvetica;fontSize=11;fontColor=default;labelBackgroundColor=default;" parent="6Ed39PRhQ_wDkVN-oWnp-29" vertex="1" connectable="0">
          <mxGeometry x="0.797" y="2" relative="1" as="geometry">
            <mxPoint x="2" y="3" as="offset" />
          </mxGeometry>
        </mxCell>
        <mxCell id="6Ed39PRhQ_wDkVN-oWnp-34" style="edgeStyle=none;rounded=0;orthogonalLoop=1;jettySize=auto;html=1;entryX=0.5;entryY=1;entryDx=0;entryDy=0;strokeColor=default;align=center;verticalAlign=middle;fontFamily=Helvetica;fontSize=11;fontColor=default;labelBackgroundColor=default;endArrow=none;endFill=0;" parent="1" source="6Ed39PRhQ_wDkVN-oWnp-27" target="6Ed39PRhQ_wDkVN-oWnp-33" edge="1">
          <mxGeometry relative="1" as="geometry" />
        </mxCell>
        <mxCell id="6Ed39PRhQ_wDkVN-oWnp-36" value="M" style="edgeLabel;html=1;align=center;verticalAlign=middle;resizable=0;points=[];fontFamily=Helvetica;fontSize=11;fontColor=default;labelBackgroundColor=default;" parent="6Ed39PRhQ_wDkVN-oWnp-34" vertex="1" connectable="0">
          <mxGeometry x="0.7881" relative="1" as="geometry">
            <mxPoint x="-12" y="2" as="offset" />
          </mxGeometry>
        </mxCell>
        <mxCell id="6Ed39PRhQ_wDkVN-oWnp-47" style="edgeStyle=none;rounded=0;orthogonalLoop=1;jettySize=auto;html=1;entryX=0.5;entryY=1;entryDx=0;entryDy=0;strokeColor=default;align=center;verticalAlign=middle;fontFamily=Helvetica;fontSize=11;fontColor=default;labelBackgroundColor=default;endArrow=none;endFill=0;" parent="1" source="6Ed39PRhQ_wDkVN-oWnp-27" target="6Ed39PRhQ_wDkVN-oWnp-46" edge="1">
          <mxGeometry relative="1" as="geometry" />
        </mxCell>
        <mxCell id="6Ed39PRhQ_wDkVN-oWnp-49" value="M" style="edgeLabel;html=1;align=center;verticalAlign=middle;resizable=0;points=[];fontFamily=Helvetica;fontSize=11;fontColor=default;labelBackgroundColor=default;" parent="6Ed39PRhQ_wDkVN-oWnp-47" vertex="1" connectable="0">
          <mxGeometry x="0.7708" y="-2" relative="1" as="geometry">
            <mxPoint x="-2" y="2" as="offset" />
          </mxGeometry>
        </mxCell>
        <mxCell id="6Ed39PRhQ_wDkVN-oWnp-67" style="edgeStyle=none;rounded=0;orthogonalLoop=1;jettySize=auto;html=1;entryX=0;entryY=1;entryDx=0;entryDy=0;strokeColor=default;align=center;verticalAlign=middle;fontFamily=Helvetica;fontSize=11;fontColor=default;labelBackgroundColor=default;endArrow=none;endFill=0;" parent="1" source="6Ed39PRhQ_wDkVN-oWnp-27" target="6Ed39PRhQ_wDkVN-oWnp-66" edge="1">
          <mxGeometry relative="1" as="geometry" />
        </mxCell>
        <mxCell id="6Ed39PRhQ_wDkVN-oWnp-27" value="User" style="whiteSpace=wrap;html=1;align=center;" parent="1" vertex="1">
          <mxGeometry x="1005" y="520" width="100" height="40" as="geometry" />
        </mxCell>
        <mxCell id="6Ed39PRhQ_wDkVN-oWnp-30" style="edgeStyle=none;rounded=0;orthogonalLoop=1;jettySize=auto;html=1;strokeColor=default;align=center;verticalAlign=middle;fontFamily=Helvetica;fontSize=11;fontColor=default;labelBackgroundColor=default;endArrow=none;endFill=0;entryX=0.5;entryY=1;entryDx=0;entryDy=0;exitX=0.5;exitY=0;exitDx=0;exitDy=0;" parent="1" source="6Ed39PRhQ_wDkVN-oWnp-28" target="6Ed39PRhQ_wDkVN-oWnp-4" edge="1">
          <mxGeometry relative="1" as="geometry">
            <mxPoint x="1040" y="230" as="targetPoint" />
          </mxGeometry>
        </mxCell>
        <mxCell id="6Ed39PRhQ_wDkVN-oWnp-32" value="1" style="edgeLabel;html=1;align=center;verticalAlign=middle;resizable=0;points=[];fontFamily=Helvetica;fontSize=11;fontColor=default;labelBackgroundColor=default;" parent="6Ed39PRhQ_wDkVN-oWnp-30" vertex="1" connectable="0">
          <mxGeometry x="-0.5921" relative="1" as="geometry">
            <mxPoint x="-12" y="5" as="offset" />
          </mxGeometry>
        </mxCell>
        <mxCell id="6Ed39PRhQ_wDkVN-oWnp-28" value="Creates" style="shape=rhombus;perimeter=rhombusPerimeter;whiteSpace=wrap;html=1;align=center;" parent="1" vertex="1">
          <mxGeometry x="815" y="390" width="120" height="60" as="geometry" />
        </mxCell>
        <mxCell id="6Ed39PRhQ_wDkVN-oWnp-35" style="edgeStyle=none;rounded=0;orthogonalLoop=1;jettySize=auto;html=1;entryX=0.5;entryY=1;entryDx=0;entryDy=0;strokeColor=default;align=center;verticalAlign=middle;fontFamily=Helvetica;fontSize=11;fontColor=default;labelBackgroundColor=default;endArrow=none;endFill=0;" parent="1" source="6Ed39PRhQ_wDkVN-oWnp-33" target="6Ed39PRhQ_wDkVN-oWnp-53" edge="1">
          <mxGeometry relative="1" as="geometry" />
        </mxCell>
        <mxCell id="6Ed39PRhQ_wDkVN-oWnp-37" value="M" style="edgeLabel;html=1;align=center;verticalAlign=middle;resizable=0;points=[];fontFamily=Helvetica;fontSize=11;fontColor=default;labelBackgroundColor=default;" parent="6Ed39PRhQ_wDkVN-oWnp-35" vertex="1" connectable="0">
          <mxGeometry x="-0.7377" relative="1" as="geometry">
            <mxPoint as="offset" />
          </mxGeometry>
        </mxCell>
        <mxCell id="6Ed39PRhQ_wDkVN-oWnp-33" value="Takes" style="shape=rhombus;perimeter=rhombusPerimeter;whiteSpace=wrap;html=1;align=center;" parent="1" vertex="1">
          <mxGeometry x="1165" y="390" width="120" height="60" as="geometry" />
        </mxCell>
        <mxCell id="6Ed39PRhQ_wDkVN-oWnp-48" style="edgeStyle=none;rounded=0;orthogonalLoop=1;jettySize=auto;html=1;strokeColor=default;align=center;verticalAlign=middle;fontFamily=Helvetica;fontSize=11;fontColor=default;labelBackgroundColor=default;endArrow=none;endFill=0;entryX=0.5;entryY=1;entryDx=0;entryDy=0;" parent="1" source="6Ed39PRhQ_wDkVN-oWnp-46" target="6Ed39PRhQ_wDkVN-oWnp-4" edge="1">
          <mxGeometry relative="1" as="geometry">
            <mxPoint x="1050" y="230" as="targetPoint" />
          </mxGeometry>
        </mxCell>
        <mxCell id="6Ed39PRhQ_wDkVN-oWnp-50" value="1" style="edgeLabel;html=1;align=center;verticalAlign=middle;resizable=0;points=[];fontFamily=Helvetica;fontSize=11;fontColor=default;labelBackgroundColor=default;" parent="6Ed39PRhQ_wDkVN-oWnp-48" vertex="1" connectable="0">
          <mxGeometry x="-0.6578" y="1" relative="1" as="geometry">
            <mxPoint as="offset" />
          </mxGeometry>
        </mxCell>
        <mxCell id="6Ed39PRhQ_wDkVN-oWnp-46" value="Manages" style="shape=rhombus;perimeter=rhombusPerimeter;whiteSpace=wrap;html=1;align=center;" parent="1" vertex="1">
          <mxGeometry x="995" y="390" width="120" height="60" as="geometry" />
        </mxCell>
        <mxCell id="6Ed39PRhQ_wDkVN-oWnp-53" value="Published Quiz" style="whiteSpace=wrap;html=1;align=center;" parent="1" vertex="1">
          <mxGeometry x="1150" y="290" width="100" height="40" as="geometry" />
        </mxCell>
        <mxCell id="6Ed39PRhQ_wDkVN-oWnp-58" value="" style="group" parent="1" vertex="1" connectable="0">
          <mxGeometry x="1115" y="210" width="54.289999999999964" height="40" as="geometry" />
        </mxCell>
        <mxCell id="6Ed39PRhQ_wDkVN-oWnp-56" value="" style="verticalLabelPosition=bottom;verticalAlign=top;html=1;shape=mxgraph.basic.acute_triangle;dx=0.5;fontFamily=Helvetica;fontSize=11;fontColor=default;labelBackgroundColor=default;" parent="6Ed39PRhQ_wDkVN-oWnp-58" vertex="1">
          <mxGeometry width="54.29" height="38" as="geometry" />
        </mxCell>
        <mxCell id="6Ed39PRhQ_wDkVN-oWnp-57" value="ISA" style="text;html=1;align=center;verticalAlign=middle;resizable=0;points=[];autosize=1;strokeColor=none;fillColor=none;fontFamily=Helvetica;fontSize=11;fontColor=default;labelBackgroundColor=default;" parent="6Ed39PRhQ_wDkVN-oWnp-58" vertex="1">
          <mxGeometry x="7.149999999999977" y="10" width="40" height="30" as="geometry" />
        </mxCell>
        <mxCell id="6Ed39PRhQ_wDkVN-oWnp-59" style="edgeStyle=none;rounded=0;orthogonalLoop=1;jettySize=auto;html=1;strokeColor=default;align=center;verticalAlign=middle;fontFamily=Helvetica;fontSize=11;fontColor=default;labelBackgroundColor=default;endArrow=none;endFill=0;exitX=0.726;exitY=0.948;exitDx=0;exitDy=0;exitPerimeter=0;" parent="1" source="6Ed39PRhQ_wDkVN-oWnp-57" edge="1">
          <mxGeometry relative="1" as="geometry">
            <mxPoint x="1150" y="240" as="sourcePoint" />
            <mxPoint x="1190" y="290" as="targetPoint" />
          </mxGeometry>
        </mxCell>
        <mxCell id="6Ed39PRhQ_wDkVN-oWnp-60" style="edgeStyle=none;rounded=0;orthogonalLoop=1;jettySize=auto;html=1;entryX=0.5;entryY=1;entryDx=0;entryDy=0;strokeColor=default;align=center;verticalAlign=middle;fontFamily=Helvetica;fontSize=11;fontColor=default;labelBackgroundColor=default;endArrow=none;endFill=0;exitX=0;exitY=0;exitDx=13.5725;exitDy=19;exitPerimeter=0;" parent="1" source="6Ed39PRhQ_wDkVN-oWnp-56" target="6Ed39PRhQ_wDkVN-oWnp-4" edge="1">
          <mxGeometry relative="1" as="geometry">
            <mxPoint x="1130" y="220" as="sourcePoint" />
          </mxGeometry>
        </mxCell>
        <mxCell id="6Ed39PRhQ_wDkVN-oWnp-68" style="edgeStyle=none;rounded=0;orthogonalLoop=1;jettySize=auto;html=1;entryX=0.5;entryY=1;entryDx=0;entryDy=0;strokeColor=default;align=center;verticalAlign=middle;fontFamily=Helvetica;fontSize=11;fontColor=default;labelBackgroundColor=default;endArrow=none;endFill=0;" parent="1" source="6Ed39PRhQ_wDkVN-oWnp-66" edge="1">
          <mxGeometry relative="1" as="geometry">
            <mxPoint x="1650" y="430" as="targetPoint" />
          </mxGeometry>
        </mxCell>
        <mxCell id="6Ed39PRhQ_wDkVN-oWnp-66" value="Reviews" style="shape=rhombus;perimeter=rhombusPerimeter;whiteSpace=wrap;html=1;align=center;" parent="1" vertex="1">
          <mxGeometry x="1350" y="460" width="120" height="60" as="geometry" />
        </mxCell>
        <mxCell id="X8mQcfrqQs31fcpPS0UA-4" style="edgeStyle=none;rounded=0;orthogonalLoop=1;jettySize=auto;html=1;entryX=0.25;entryY=1;entryDx=0;entryDy=0;strokeColor=default;align=center;verticalAlign=middle;fontFamily=Helvetica;fontSize=11;fontColor=default;labelBackgroundColor=default;endArrow=none;endFill=0;exitX=0.5;exitY=0;exitDx=0;exitDy=0;" edge="1" parent="1" source="X8mQcfrqQs31fcpPS0UA-1" target="6Ed39PRhQ_wDkVN-oWnp-5">
          <mxGeometry relative="1" as="geometry">
            <mxPoint x="1635" y="180" as="sourcePoint" />
          </mxGeometry>
        </mxCell>
        <mxCell id="X8mQcfrqQs31fcpPS0UA-6" value="M" style="edgeLabel;html=1;align=center;verticalAlign=middle;resizable=0;points=[];fontFamily=Helvetica;fontSize=11;fontColor=default;labelBackgroundColor=default;" vertex="1" connectable="0" parent="X8mQcfrqQs31fcpPS0UA-4">
          <mxGeometry x="-0.5648" y="2" relative="1" as="geometry">
            <mxPoint as="offset" />
          </mxGeometry>
        </mxCell>
        <mxCell id="X8mQcfrqQs31fcpPS0UA-9" value="" style="edgeStyle=none;rounded=0;orthogonalLoop=1;jettySize=auto;html=1;strokeColor=default;align=center;verticalAlign=middle;fontFamily=Helvetica;fontSize=11;fontColor=default;labelBackgroundColor=default;endArrow=none;endFill=0;" edge="1" parent="1" source="X8mQcfrqQs31fcpPS0UA-1">
          <mxGeometry relative="1" as="geometry">
            <mxPoint x="1634.736842105263" y="390" as="targetPoint" />
          </mxGeometry>
        </mxCell>
        <mxCell id="X8mQcfrqQs31fcpPS0UA-10" value="M" style="edgeLabel;html=1;align=center;verticalAlign=middle;resizable=0;points=[];fontFamily=Helvetica;fontSize=11;fontColor=default;labelBackgroundColor=default;" vertex="1" connectable="0" parent="X8mQcfrqQs31fcpPS0UA-9">
          <mxGeometry x="-0.4062" y="-4" relative="1" as="geometry">
            <mxPoint as="offset" />
          </mxGeometry>
        </mxCell>
        <mxCell id="X8mQcfrqQs31fcpPS0UA-1" value="Has&amp;nbsp;&lt;div&gt;Correctly Answered&lt;/div&gt;" style="rhombus;whiteSpace=wrap;html=1;" vertex="1" parent="1">
          <mxGeometry x="1430" y="170" width="150" height="100" as="geometry" />
        </mxCell>
        <mxCell id="X8mQcfrqQs31fcpPS0UA-11" value="" style="edgeStyle=none;rounded=0;orthogonalLoop=1;jettySize=auto;html=1;strokeColor=default;align=center;verticalAlign=middle;fontFamily=Helvetica;fontSize=11;fontColor=default;labelBackgroundColor=default;endArrow=none;endFill=0;" edge="1" parent="1" source="X8mQcfrqQs31fcpPS0UA-7">
          <mxGeometry relative="1" as="geometry">
            <mxPoint x="1658.9473684210525" y="390" as="targetPoint" />
          </mxGeometry>
        </mxCell>
        <mxCell id="X8mQcfrqQs31fcpPS0UA-13" value="M" style="edgeLabel;html=1;align=center;verticalAlign=middle;resizable=0;points=[];fontFamily=Helvetica;fontSize=11;fontColor=default;labelBackgroundColor=default;" vertex="1" connectable="0" parent="X8mQcfrqQs31fcpPS0UA-11">
          <mxGeometry x="-0.5828" y="-4" relative="1" as="geometry">
            <mxPoint x="1" as="offset" />
          </mxGeometry>
        </mxCell>
        <mxCell id="X8mQcfrqQs31fcpPS0UA-12" value="" style="edgeStyle=none;rounded=0;orthogonalLoop=1;jettySize=auto;html=1;strokeColor=default;align=center;verticalAlign=middle;fontFamily=Helvetica;fontSize=11;fontColor=default;labelBackgroundColor=default;endArrow=none;endFill=0;" edge="1" parent="1" source="X8mQcfrqQs31fcpPS0UA-7" target="6Ed39PRhQ_wDkVN-oWnp-5">
          <mxGeometry relative="1" as="geometry" />
        </mxCell>
        <mxCell id="X8mQcfrqQs31fcpPS0UA-14" value="M" style="edgeLabel;html=1;align=center;verticalAlign=middle;resizable=0;points=[];fontFamily=Helvetica;fontSize=11;fontColor=default;labelBackgroundColor=default;" vertex="1" connectable="0" parent="X8mQcfrqQs31fcpPS0UA-12">
          <mxGeometry x="-0.3422" y="2" relative="1" as="geometry">
            <mxPoint y="-1" as="offset" />
          </mxGeometry>
        </mxCell>
        <mxCell id="X8mQcfrqQs31fcpPS0UA-7" value="Has&amp;nbsp;&lt;div&gt;Wrongly Answered&lt;/div&gt;" style="rhombus;whiteSpace=wrap;html=1;" vertex="1" parent="1">
          <mxGeometry x="1660" y="170" width="150" height="100" as="geometry" />
        </mxCell>
        <mxCell id="X8mQcfrqQs31fcpPS0UA-16" value="" style="edgeStyle=none;rounded=0;orthogonalLoop=1;jettySize=auto;html=1;strokeColor=default;align=center;verticalAlign=middle;fontFamily=Helvetica;fontSize=11;fontColor=default;labelBackgroundColor=default;endArrow=none;endFill=0;entryX=0;entryY=0;entryDx=0;entryDy=0;" edge="1" parent="1" source="X8mQcfrqQs31fcpPS0UA-15">
          <mxGeometry relative="1" as="geometry">
            <mxPoint x="1600" y="390" as="targetPoint" />
          </mxGeometry>
        </mxCell>
        <mxCell id="X8mQcfrqQs31fcpPS0UA-18" value="1" style="edgeLabel;html=1;align=center;verticalAlign=middle;resizable=0;points=[];fontFamily=Helvetica;fontSize=11;fontColor=default;labelBackgroundColor=default;" vertex="1" connectable="0" parent="X8mQcfrqQs31fcpPS0UA-16">
          <mxGeometry x="-0.8293" y="2" relative="1" as="geometry">
            <mxPoint y="1" as="offset" />
          </mxGeometry>
        </mxCell>
        <mxCell id="X8mQcfrqQs31fcpPS0UA-17" value="" style="edgeStyle=none;rounded=0;orthogonalLoop=1;jettySize=auto;html=1;strokeColor=default;align=center;verticalAlign=middle;fontFamily=Helvetica;fontSize=11;fontColor=default;labelBackgroundColor=default;endArrow=none;endFill=0;" edge="1" parent="1" source="X8mQcfrqQs31fcpPS0UA-15" target="6Ed39PRhQ_wDkVN-oWnp-4">
          <mxGeometry relative="1" as="geometry" />
        </mxCell>
        <mxCell id="X8mQcfrqQs31fcpPS0UA-19" value="M" style="edgeLabel;html=1;align=center;verticalAlign=middle;resizable=0;points=[];fontFamily=Helvetica;fontSize=11;fontColor=default;labelBackgroundColor=default;" vertex="1" connectable="0" parent="X8mQcfrqQs31fcpPS0UA-17">
          <mxGeometry x="-0.7213" relative="1" as="geometry">
            <mxPoint x="-1" as="offset" />
          </mxGeometry>
        </mxCell>
        <mxCell id="X8mQcfrqQs31fcpPS0UA-15" value="Has&amp;nbsp;" style="rhombus;whiteSpace=wrap;html=1;" vertex="1" parent="1">
          <mxGeometry x="1275" y="220" width="90" height="60" as="geometry" />
        </mxCell>
        <mxCell id="X8mQcfrqQs31fcpPS0UA-25" value="" style="edgeStyle=none;rounded=0;orthogonalLoop=1;jettySize=auto;html=1;strokeColor=default;align=center;verticalAlign=middle;fontFamily=Helvetica;fontSize=11;fontColor=default;labelBackgroundColor=default;endArrow=none;endFill=0;" edge="1" parent="1" source="X8mQcfrqQs31fcpPS0UA-21" target="6Ed39PRhQ_wDkVN-oWnp-4">
          <mxGeometry relative="1" as="geometry">
            <mxPoint x="1030" y="70" as="targetPoint" />
          </mxGeometry>
        </mxCell>
        <mxCell id="X8mQcfrqQs31fcpPS0UA-21" value="QuizID" style="ellipse;whiteSpace=wrap;html=1;align=center;fontStyle=4;fontFamily=Helvetica;fontSize=11;fontColor=default;labelBackgroundColor=default;" vertex="1" parent="1">
          <mxGeometry x="935" width="100" height="40" as="geometry" />
        </mxCell>
        <mxCell id="X8mQcfrqQs31fcpPS0UA-27" value="" style="edgeStyle=none;rounded=0;orthogonalLoop=1;jettySize=auto;html=1;strokeColor=default;align=center;verticalAlign=middle;fontFamily=Helvetica;fontSize=11;fontColor=default;labelBackgroundColor=default;endArrow=none;endFill=0;entryX=0;entryY=0.5;entryDx=0;entryDy=0;" edge="1" parent="1" source="X8mQcfrqQs31fcpPS0UA-22" target="6Ed39PRhQ_wDkVN-oWnp-4">
          <mxGeometry relative="1" as="geometry" />
        </mxCell>
        <mxCell id="X8mQcfrqQs31fcpPS0UA-22" value="Title" style="ellipse;whiteSpace=wrap;html=1;align=center;fontFamily=Helvetica;fontSize=11;fontColor=default;labelBackgroundColor=default;" vertex="1" parent="1">
          <mxGeometry x="870" y="60" width="100" height="40" as="geometry" />
        </mxCell>
        <mxCell id="X8mQcfrqQs31fcpPS0UA-26" value="" style="edgeStyle=none;rounded=0;orthogonalLoop=1;jettySize=auto;html=1;strokeColor=default;align=center;verticalAlign=middle;fontFamily=Helvetica;fontSize=11;fontColor=default;labelBackgroundColor=default;endArrow=none;endFill=0;" edge="1" parent="1" source="X8mQcfrqQs31fcpPS0UA-23" target="6Ed39PRhQ_wDkVN-oWnp-4">
          <mxGeometry relative="1" as="geometry" />
        </mxCell>
        <mxCell id="X8mQcfrqQs31fcpPS0UA-23" value="Description" style="ellipse;whiteSpace=wrap;html=1;align=center;fontFamily=Helvetica;fontSize=11;fontColor=default;labelBackgroundColor=default;" vertex="1" parent="1">
          <mxGeometry x="1050" width="100" height="40" as="geometry" />
        </mxCell>
        <mxCell id="X8mQcfrqQs31fcpPS0UA-30" style="edgeStyle=none;rounded=0;orthogonalLoop=1;jettySize=auto;html=1;entryX=0.25;entryY=0;entryDx=0;entryDy=0;strokeColor=default;align=center;verticalAlign=middle;fontFamily=Helvetica;fontSize=11;fontColor=default;labelBackgroundColor=default;endArrow=none;endFill=0;" edge="1" parent="1" source="X8mQcfrqQs31fcpPS0UA-28" target="6Ed39PRhQ_wDkVN-oWnp-5">
          <mxGeometry relative="1" as="geometry" />
        </mxCell>
        <mxCell id="X8mQcfrqQs31fcpPS0UA-28" value="QuestionID" style="ellipse;whiteSpace=wrap;html=1;align=center;fontStyle=4;fontFamily=Helvetica;fontSize=11;fontColor=default;labelBackgroundColor=default;" vertex="1" parent="1">
          <mxGeometry x="1560" y="-10" width="100" height="40" as="geometry" />
        </mxCell>
        <mxCell id="X8mQcfrqQs31fcpPS0UA-31" value="" style="edgeStyle=none;rounded=0;orthogonalLoop=1;jettySize=auto;html=1;strokeColor=default;align=center;verticalAlign=middle;fontFamily=Helvetica;fontSize=11;fontColor=default;labelBackgroundColor=default;endArrow=none;endFill=0;" edge="1" parent="1" source="X8mQcfrqQs31fcpPS0UA-29" target="6Ed39PRhQ_wDkVN-oWnp-5">
          <mxGeometry relative="1" as="geometry" />
        </mxCell>
        <mxCell id="X8mQcfrqQs31fcpPS0UA-29" value="QuestionText" style="ellipse;whiteSpace=wrap;html=1;align=center;fontFamily=Helvetica;fontSize=11;fontColor=default;labelBackgroundColor=default;" vertex="1" parent="1">
          <mxGeometry x="1670" y="-10" width="100" height="40" as="geometry" />
        </mxCell>
        <mxCell id="X8mQcfrqQs31fcpPS0UA-35" value="" style="edgeStyle=none;rounded=0;orthogonalLoop=1;jettySize=auto;html=1;strokeColor=default;align=center;verticalAlign=middle;fontFamily=Helvetica;fontSize=11;fontColor=default;labelBackgroundColor=default;endArrow=none;endFill=0;" edge="1" parent="1" target="6Ed39PRhQ_wDkVN-oWnp-23">
          <mxGeometry relative="1" as="geometry">
            <mxPoint x="2124.270057067404" y="29.92693298121776" as="sourcePoint" />
          </mxGeometry>
        </mxCell>
        <mxCell id="X8mQcfrqQs31fcpPS0UA-36" style="edgeStyle=none;rounded=0;orthogonalLoop=1;jettySize=auto;html=1;strokeColor=default;align=center;verticalAlign=middle;fontFamily=Helvetica;fontSize=11;fontColor=default;labelBackgroundColor=default;endArrow=none;endFill=0;" edge="1" parent="1" source="X8mQcfrqQs31fcpPS0UA-34" target="6Ed39PRhQ_wDkVN-oWnp-23">
          <mxGeometry relative="1" as="geometry" />
        </mxCell>
        <mxCell id="X8mQcfrqQs31fcpPS0UA-34" value="AnswerText" style="ellipse;whiteSpace=wrap;html=1;align=center;fontFamily=Helvetica;fontSize=11;fontColor=default;labelBackgroundColor=default;" vertex="1" parent="1">
          <mxGeometry x="2180" y="10" width="100" height="40" as="geometry" />
        </mxCell>
        <mxCell id="X8mQcfrqQs31fcpPS0UA-37" value="UserID" style="ellipse;whiteSpace=wrap;html=1;align=center;fontStyle=4;fontFamily=Helvetica;fontSize=11;fontColor=default;labelBackgroundColor=default;" vertex="1" parent="1">
          <mxGeometry x="890" y="610" width="100" height="40" as="geometry" />
        </mxCell>
        <mxCell id="X8mQcfrqQs31fcpPS0UA-44" value="" style="edgeStyle=none;rounded=0;orthogonalLoop=1;jettySize=auto;html=1;strokeColor=default;align=center;verticalAlign=middle;fontFamily=Helvetica;fontSize=11;fontColor=default;labelBackgroundColor=default;endArrow=none;endFill=0;" edge="1" parent="1" source="X8mQcfrqQs31fcpPS0UA-38" target="6Ed39PRhQ_wDkVN-oWnp-27">
          <mxGeometry relative="1" as="geometry" />
        </mxCell>
        <mxCell id="X8mQcfrqQs31fcpPS0UA-38" value="Password" style="ellipse;whiteSpace=wrap;html=1;align=center;fontFamily=Helvetica;fontSize=11;fontColor=default;labelBackgroundColor=default;" vertex="1" parent="1">
          <mxGeometry x="1005" y="630" width="100" height="40" as="geometry" />
        </mxCell>
        <mxCell id="X8mQcfrqQs31fcpPS0UA-39" value="Name" style="ellipse;whiteSpace=wrap;html=1;align=center;fontFamily=Helvetica;fontSize=11;fontColor=default;labelBackgroundColor=default;" vertex="1" parent="1">
          <mxGeometry x="1130" y="620" width="100" height="40" as="geometry" />
        </mxCell>
        <mxCell id="X8mQcfrqQs31fcpPS0UA-42" style="edgeStyle=none;rounded=0;orthogonalLoop=1;jettySize=auto;html=1;entryX=0;entryY=0.25;entryDx=0;entryDy=0;strokeColor=default;align=center;verticalAlign=middle;fontFamily=Helvetica;fontSize=11;fontColor=default;labelBackgroundColor=default;endArrow=none;endFill=0;" edge="1" parent="1" source="X8mQcfrqQs31fcpPS0UA-40" target="6Ed39PRhQ_wDkVN-oWnp-27">
          <mxGeometry relative="1" as="geometry" />
        </mxCell>
        <mxCell id="X8mQcfrqQs31fcpPS0UA-40" value="Username" style="ellipse;whiteSpace=wrap;html=1;align=center;fontFamily=Helvetica;fontSize=11;fontColor=default;labelBackgroundColor=default;" vertex="1" parent="1">
          <mxGeometry x="870" y="540" width="100" height="40" as="geometry" />
        </mxCell>
        <mxCell id="X8mQcfrqQs31fcpPS0UA-47" style="edgeStyle=none;rounded=0;orthogonalLoop=1;jettySize=auto;html=1;entryX=1;entryY=0.75;entryDx=0;entryDy=0;strokeColor=default;align=center;verticalAlign=middle;fontFamily=Helvetica;fontSize=11;fontColor=default;labelBackgroundColor=default;endArrow=none;endFill=0;" edge="1" parent="1" source="X8mQcfrqQs31fcpPS0UA-41" target="6Ed39PRhQ_wDkVN-oWnp-27">
          <mxGeometry relative="1" as="geometry" />
        </mxCell>
        <mxCell id="X8mQcfrqQs31fcpPS0UA-41" value="Email" style="ellipse;whiteSpace=wrap;html=1;align=center;fontFamily=Helvetica;fontSize=11;fontColor=default;labelBackgroundColor=default;" vertex="1" parent="1">
          <mxGeometry x="1150" y="560" width="100" height="40" as="geometry" />
        </mxCell>
        <mxCell id="X8mQcfrqQs31fcpPS0UA-43" style="edgeStyle=none;rounded=0;orthogonalLoop=1;jettySize=auto;html=1;strokeColor=default;align=center;verticalAlign=middle;fontFamily=Helvetica;fontSize=11;fontColor=default;labelBackgroundColor=default;endArrow=none;endFill=0;" edge="1" parent="1" source="X8mQcfrqQs31fcpPS0UA-37">
          <mxGeometry relative="1" as="geometry">
            <mxPoint x="1020" y="560" as="targetPoint" />
          </mxGeometry>
        </mxCell>
        <mxCell id="X8mQcfrqQs31fcpPS0UA-46" style="edgeStyle=none;rounded=0;orthogonalLoop=1;jettySize=auto;html=1;strokeColor=default;align=center;verticalAlign=middle;fontFamily=Helvetica;fontSize=11;fontColor=default;labelBackgroundColor=default;endArrow=none;endFill=0;" edge="1" parent="1" source="X8mQcfrqQs31fcpPS0UA-39">
          <mxGeometry relative="1" as="geometry">
            <mxPoint x="1090" y="560" as="targetPoint" />
          </mxGeometry>
        </mxCell>
        <mxCell id="X8mQcfrqQs31fcpPS0UA-51" value="QuizAttempt" style="shape=ext;margin=3;double=1;whiteSpace=wrap;html=1;align=center;fontFamily=Helvetica;fontSize=11;fontColor=default;labelBackgroundColor=default;" vertex="1" parent="1">
          <mxGeometry x="1590" y="390" width="100" height="40" as="geometry" />
        </mxCell>
        <mxCell id="X8mQcfrqQs31fcpPS0UA-57" style="edgeStyle=none;rounded=0;orthogonalLoop=1;jettySize=auto;html=1;exitX=0.5;exitY=1;exitDx=0;exitDy=0;entryX=1;entryY=0.75;entryDx=0;entryDy=0;strokeColor=default;align=center;verticalAlign=middle;fontFamily=Helvetica;fontSize=11;fontColor=default;labelBackgroundColor=default;endArrow=none;endFill=0;" edge="1" parent="1" source="X8mQcfrqQs31fcpPS0UA-54" target="X8mQcfrqQs31fcpPS0UA-51">
          <mxGeometry relative="1" as="geometry" />
        </mxCell>
        <mxCell id="X8mQcfrqQs31fcpPS0UA-54" value="Score" style="ellipse;whiteSpace=wrap;html=1;align=center;fontFamily=Helvetica;fontSize=11;fontColor=default;labelBackgroundColor=default;" vertex="1" parent="1">
          <mxGeometry x="1720" y="390" width="100" height="40" as="geometry" />
        </mxCell>
        <mxCell id="X8mQcfrqQs31fcpPS0UA-59" style="edgeStyle=none;rounded=0;orthogonalLoop=1;jettySize=auto;html=1;entryX=1;entryY=1;entryDx=0;entryDy=0;strokeColor=default;align=center;verticalAlign=middle;fontFamily=Helvetica;fontSize=11;fontColor=default;labelBackgroundColor=default;endArrow=none;endFill=0;" edge="1" parent="1" source="X8mQcfrqQs31fcpPS0UA-55" target="X8mQcfrqQs31fcpPS0UA-51">
          <mxGeometry relative="1" as="geometry" />
        </mxCell>
        <mxCell id="X8mQcfrqQs31fcpPS0UA-55" value="&lt;i&gt;&lt;u&gt;QuizID&lt;/u&gt;&lt;/i&gt;" style="ellipse;whiteSpace=wrap;html=1;align=center;fontFamily=Helvetica;fontSize=11;fontColor=default;labelBackgroundColor=default;" vertex="1" parent="1">
          <mxGeometry x="1700" y="480" width="100" height="40" as="geometry" />
        </mxCell>
        <mxCell id="X8mQcfrqQs31fcpPS0UA-58" value="" style="edgeStyle=none;rounded=0;orthogonalLoop=1;jettySize=auto;html=1;strokeColor=default;align=center;verticalAlign=middle;fontFamily=Helvetica;fontSize=11;fontColor=default;labelBackgroundColor=default;endArrow=none;endFill=0;" edge="1" parent="1" source="X8mQcfrqQs31fcpPS0UA-56" target="X8mQcfrqQs31fcpPS0UA-51">
          <mxGeometry relative="1" as="geometry" />
        </mxCell>
        <mxCell id="X8mQcfrqQs31fcpPS0UA-56" value="&lt;i&gt;&lt;u&gt;UserID&lt;/u&gt;&lt;/i&gt;" style="ellipse;whiteSpace=wrap;html=1;align=center;fontFamily=Helvetica;fontSize=11;fontColor=default;labelBackgroundColor=default;" vertex="1" parent="1">
          <mxGeometry x="1570" y="480" width="100" height="40" as="geometry" />
        </mxCell>
        <mxCell id="X8mQcfrqQs31fcpPS0UA-60" value="&lt;i&gt;&lt;u&gt;QuestionID&lt;/u&gt;&lt;/i&gt;" style="ellipse;whiteSpace=wrap;html=1;align=center;fontFamily=Helvetica;fontSize=11;fontColor=default;labelBackgroundColor=default;" vertex="1" parent="1">
          <mxGeometry x="2070" y="-10" width="100" height="40" as="geometry" />
        </mxCell>
        <mxCell id="X8mQcfrqQs31fcpPS0UA-62" style="edgeStyle=none;rounded=0;orthogonalLoop=1;jettySize=auto;html=1;entryX=0;entryY=0.5;entryDx=0;entryDy=0;strokeColor=default;align=center;verticalAlign=middle;fontFamily=Helvetica;fontSize=11;fontColor=default;labelBackgroundColor=default;endArrow=none;endFill=0;" edge="1" parent="1" source="X8mQcfrqQs31fcpPS0UA-61" target="6Ed39PRhQ_wDkVN-oWnp-28">
          <mxGeometry relative="1" as="geometry" />
        </mxCell>
        <mxCell id="X8mQcfrqQs31fcpPS0UA-61" value="CreatedDate" style="ellipse;whiteSpace=wrap;html=1;align=center;fontFamily=Helvetica;fontSize=11;fontColor=default;labelBackgroundColor=default;" vertex="1" parent="1">
          <mxGeometry x="715" y="360" width="100" height="40" as="geometry" />
        </mxCell>
        <mxCell id="X8mQcfrqQs31fcpPS0UA-64" style="edgeStyle=none;rounded=0;orthogonalLoop=1;jettySize=auto;html=1;strokeColor=default;align=center;verticalAlign=middle;fontFamily=Helvetica;fontSize=11;fontColor=default;labelBackgroundColor=default;endArrow=none;endFill=0;" edge="1" parent="1" source="X8mQcfrqQs31fcpPS0UA-63" target="6Ed39PRhQ_wDkVN-oWnp-46">
          <mxGeometry relative="1" as="geometry" />
        </mxCell>
        <mxCell id="X8mQcfrqQs31fcpPS0UA-63" value="LastUpdatedDate" style="ellipse;whiteSpace=wrap;html=1;align=center;fontFamily=Helvetica;fontSize=11;fontColor=default;labelBackgroundColor=default;" vertex="1" parent="1">
          <mxGeometry x="935" y="340" width="100" height="40" as="geometry" />
        </mxCell>
        <mxCell id="X8mQcfrqQs31fcpPS0UA-66" style="edgeStyle=none;rounded=0;orthogonalLoop=1;jettySize=auto;html=1;entryX=1;entryY=0.25;entryDx=0;entryDy=0;strokeColor=default;align=center;verticalAlign=middle;fontFamily=Helvetica;fontSize=11;fontColor=default;labelBackgroundColor=default;endArrow=none;endFill=0;" edge="1" parent="1" source="X8mQcfrqQs31fcpPS0UA-65" target="X8mQcfrqQs31fcpPS0UA-51">
          <mxGeometry relative="1" as="geometry" />
        </mxCell>
        <mxCell id="X8mQcfrqQs31fcpPS0UA-65" value="LastTaken" style="ellipse;whiteSpace=wrap;html=1;align=center;fontFamily=Helvetica;fontSize=11;fontColor=default;labelBackgroundColor=default;" vertex="1" parent="1">
          <mxGeometry x="1720" y="330" width="100" height="40" as="geometry" />
        </mxCell>
      </root>
    </mxGraphModel>
  </diagram>
</mxfile>
